# Blender v2.92.0 OBJ File: ''
# www.blender.org
mtllib lpms-cu2.mtl
o lpms-cu2
v -0.999223 -0.821848 -0.488417
v -0.999231 1.178147 -0.486829
v 1.000765 1.178158 -0.483653
v 1.000773 -0.821842 -0.485242
v 0.999542 1.177546 0.286839
v -1.000454 1.177536 0.283664
v -0.642628 0.819505 0.371151
v 0.641441 0.819510 0.373190
v -1.000446 -0.822460 0.282075
v 0.999551 -0.822454 0.285250
v -0.642623 -0.464565 0.370132
v 0.641446 -0.464561 0.372170
v -1.330102 0.674617 -0.268305
v -0.994458 0.674617 -0.267772
v -0.994346 0.603838 -0.338727
v -1.329988 0.603836 -0.339260
v -0.994337 -0.187937 -0.342426
v -1.344157 -0.187938 -0.342981
v -0.994458 -0.264068 -0.266480
v -1.344278 -0.264069 -0.267036
v -0.994954 -0.311331 0.046099
v -1.352139 -0.311332 0.045532
v -0.995079 -0.232703 0.124918
v -1.352264 -0.232704 0.124351
v -0.995078 0.648524 0.122492
v -1.332466 0.648523 0.121957
v -0.994967 0.720115 0.051076
v -1.332353 0.720112 0.050540
v -1.246287 -0.538302 -0.206777
v -1.003242 -0.538301 -0.206391
v -1.003338 -0.643592 -0.145713
v -1.246384 -0.643595 -0.146100
v -1.003531 -0.643689 -0.024190
v -1.246577 -0.643691 -0.024576
v -1.003628 -0.538494 0.036655
v -1.246673 -0.538495 0.036269
v -1.003532 -0.433204 -0.024023
v -1.246578 -0.433205 -0.024409
v -1.003339 -0.433108 -0.145546
v -1.246385 -0.433109 -0.145932
v -1.253164 0.949127 -0.212485
v -0.996359 0.949127 -0.212078
v -0.996460 0.837876 -0.147965
v -1.253264 0.837875 -0.148373
v -0.996664 0.837775 -0.019563
v -1.253468 0.837774 -0.019971
v -0.996767 0.948923 0.044726
v -1.253572 0.948923 0.044319
v -0.996665 1.060173 -0.019386
v -1.253470 1.060173 -0.019794
v -0.996461 1.060275 -0.147788
v -1.253266 1.060275 -0.148196
vt 0.746155 0.920750
vt 0.256219 0.767740
vt 0.745988 0.767622
vt 0.745392 0.327847
vt 0.345577 0.390681
vt 0.255623 0.327965
vt 0.745912 0.672267
vt 0.767301 0.327682
vt 0.767821 0.672102
vt 0.255547 0.172531
vt 0.745317 0.172413
vt 0.165115 0.328130
vt 0.256143 0.672385
vt 0.165635 0.672550
vt 0.345314 0.609158
vt 0.656221 0.391074
vt 0.655958 0.609551
vt 0.918370 0.396958
vt 0.933235 0.425866
vt 0.911604 0.411776
vt 0.980683 0.572775
vt 0.933862 0.566520
vt 0.926206 0.607496
vt 0.922205 0.577576
vt 0.836596 0.626047
vt 0.839627 0.589661
vt 0.816070 0.574943
vt 0.780939 0.576521
vt 0.816546 0.416532
vt 0.842340 0.388653
vt 0.842551 0.402109
vt 0.859239 0.327543
vt 0.914352 0.320669
vt 0.905588 0.334126
vt 0.920020 0.362239
vt 0.934597 0.386288
vt 0.899451 0.385865
vt 0.841426 0.397188
vt 0.844745 0.380798
vt 0.798131 0.367173
vt 0.835770 0.359160
vt 0.797994 0.340785
vt 0.797423 0.367353
vt 0.835484 0.358457
vt 0.845393 0.380833
vt 0.797041 0.340634
vt 0.858472 0.327642
vt 0.914365 0.320300
vt 0.906740 0.333353
vt 0.919988 0.362136
vt 0.933450 0.387000
vt 0.899781 0.385544
vt 0.840681 0.396931
vt 0.256386 0.920868
vt 0.946738 0.407509
vt 0.974707 0.420737
vt 0.954814 0.598959
vt 0.802035 0.625634
vt 0.778949 0.412552
vt 0.812859 0.388265
vt 0.868383 0.317192
vt 0.943847 0.347486
vt 0.897528 0.402825
vt 0.829783 0.320327
vt 0.829774 0.320625
vt 0.868399 0.317359
vt 0.942819 0.348140
vt 0.897829 0.403057
vn -0.5764 0.5778 -0.5778
vn 0.5783 -0.5769 -0.5769
vn -0.5764 -0.5769 -0.5787
vn -0.3578 0.6518 0.6687
vn 0.0782 0.0790 0.9938
vn 0.4719 0.4724 0.7444
vn -0.5610 -0.3970 0.7264
vn 0.5783 0.5778 -0.5760
vn 0.4690 -0.4708 0.7473
vn 0.0740 -0.0907 0.9931
vn -0.1015 0.0790 0.9917
vn -0.0814 -0.0806 0.9934
vn 0.0007 0.8947 -0.4466
vn -0.4607 0.3471 -0.8168
vn -0.4616 0.7929 -0.3978
vn 0.0015 -0.3800 -0.9250
vn -0.4608 -0.3326 -0.8228
vn 0.0007 -0.8923 -0.4514
vn -0.4499 -0.7955 -0.4060
vn -0.0005 -0.9502 0.3118
vn -0.4950 -0.8281 0.2630
vn -0.4664 -0.3339 0.8191
vn -0.0015 -0.3820 0.9242
vn -0.4626 0.3455 0.8165
vn -0.0005 0.9485 0.3169
vn -0.4922 0.8258 0.2754
vn -0.5083 -0.0796 -0.8575
vn 0.0008 -0.8656 -0.5007
vn -0.4956 -0.7515 -0.4355
vn -0.4962 -0.7525 0.4329
vn -0.0008 -0.8664 0.4993
vn -0.4903 -0.0007 0.8716
vn -0.0008 0.8656 0.5007
vn -0.5007 0.7497 0.4328
vn -0.4928 0.7536 -0.4351
vn 0.0008 0.8664 -0.4993
vn 0.0016 0.0008 -1.0000
vn -0.4928 -0.7529 -0.4363
vn -0.4986 0.0007 -0.8668
vn -0.4908 -0.7552 0.4344
vn -0.0016 -0.0008 1.0000
vn -0.4977 -0.0007 0.8674
vn -0.4963 0.7519 0.4341
vn -0.4882 0.7558 -0.4364
vn 0.0015 0.3854 -0.9227
vn -0.0015 0.3834 0.9236
usemtl Mesh_Material
s 1
f 2/1/1 4/2/2 1/3/3
f 6/4/4 8/5/5 5/6/6
f 9/7/7 2/8/1 1/9/3
f 6/4/4 3/10/8 2/11/1
f 3/12/8 10/13/9 4/14/2
f 9/7/7 4/2/2 10/13/9
f 12/15/10 7/16/11 11/17/12
f 6/4/4 11/17/12 7/16/11
f 10/13/9 8/5/5 12/15/10
f 9/7/7 12/15/10 11/17/12
f 14/18/13 16/19/14 13/20/15
f 16/19/14 17/21/16 18/22/17
f 18/22/17 19/23/18 20/24/19
f 20/24/19 21/25/20 22/26/21
f 21/25/20 24/27/22 22/26/21
f 23/28/23 26/29/24 24/27/22
f 26/29/24 27/30/25 28/31/26
f 27/30/25 13/20/15 28/31/26
f 24/27/22 26/29/24 16/19/14
f 29/32/27 31/33/28 32/34/29
f 31/33/28 34/35/30 32/34/29
f 33/36/31 36/37/32 34/35/30
f 36/37/32 37/38/33 38/39/34
f 37/40/33 40/41/35 38/39/34
f 39/42/36 29/32/27 40/41/35
f 36/37/32 38/39/34 40/41/35
f 42/43/37 44/44/38 41/45/39
f 43/46/28 46/47/40 44/44/38
f 46/47/40 47/48/41 48/49/42
f 47/48/41 50/50/43 48/49/42
f 49/51/33 52/52/44 50/50/43
f 52/52/44 42/53/37 41/45/39
f 48/49/42 50/50/43 52/52/44
f 2/1/1 3/54/8 4/2/2
f 6/4/4 7/16/11 8/5/5
f 9/7/7 6/4/4 2/8/1
f 6/4/4 5/6/6 3/10/8
f 3/12/8 5/6/6 10/13/9
f 9/7/7 1/3/3 4/2/2
f 12/15/10 8/5/5 7/16/11
f 6/4/4 9/7/7 11/17/12
f 10/13/9 5/6/6 8/5/5
f 9/7/7 10/13/9 12/15/10
f 14/18/13 15/55/45 16/19/14
f 16/19/14 15/56/45 17/21/16
f 18/22/17 17/57/16 19/23/18
f 20/24/19 19/23/18 21/25/20
f 21/25/20 23/58/23 24/27/22
f 23/28/23 25/59/46 26/29/24
f 26/29/24 25/60/46 27/30/25
f 27/30/25 14/18/13 13/20/15
f 28/31/26 13/20/15 26/29/24
f 13/20/15 16/19/14 26/29/24
f 16/19/14 18/22/17 24/27/22
f 18/22/17 20/24/19 24/27/22
f 20/24/19 22/26/21 24/27/22
f 29/32/27 30/61/37 31/33/28
f 31/33/28 33/62/31 34/35/30
f 33/36/31 35/63/41 36/37/32
f 36/37/32 35/63/41 37/38/33
f 37/40/33 39/42/36 40/41/35
f 39/42/36 30/64/37 29/32/27
f 40/41/35 29/32/27 36/37/32
f 29/32/27 32/34/29 36/37/32
f 32/34/29 34/35/30 36/37/32
f 42/43/37 43/46/28 44/44/38
f 43/46/28 45/65/31 46/47/40
f 46/47/40 45/66/31 47/48/41
f 47/48/41 49/67/33 50/50/43
f 49/51/33 51/68/36 52/52/44
f 52/52/44 51/68/36 42/53/37
f 52/52/44 41/45/39 44/44/38
f 44/44/38 46/47/40 52/52/44
f 46/47/40 48/49/42 52/52/44
